<svg xmlns="http://www.w3.org/2000/svg" width="1440" height="900" viewBox="0 0 1440 900"><defs><linearGradient id="bg" x2="0" y2="1"><stop stop-color="#f5f7fb"/><stop offset="1" stop-color="#edf1f8"/></linearGradient><linearGradient id="logo" x2="1" y2="1"><stop stop-color="#635bff"/><stop offset="1" stop-color="#a855f7"/></linearGradient><filter id="s"><feDropShadow dx="0" dy="12" stdDeviation="18" flood-color="#2b3557" flood-opacity=".14"/></filter></defs><rect width="1440" height="900" fill="url(#bg)"/><circle cx="170" cy="20" r="260" fill="#635bff" opacity=".08"/><circle cx="1260" cy="40" r="240" fill="#a855f7" opacity=".07"/><rect x="160" y="24" width="44" height="44" rx="15" fill="url(#logo)"/><text x="182" y="53" text-anchor="middle" fill="white" font-size="20" font-weight="700" font-family="Arial">T</text><text x="218" y="51" fill="#0f172a" font-size="25" font-weight="700" font-family="Arial">Tiwoo</text><text x="218" y="67" fill="#697386" font-size="10" font-weight="700" font-family="Arial">SOCIAL PULSE</text><rect x="1045" y="27" width="100" height="43" rx="13" fill="white" stroke="#dce1eb"/><text x="1095" y="54" text-anchor="middle" fill="#172033" font-size="14" font-weight="700" font-family="Arial">Giriş yap</text><rect x="1158" y="27" width="122" height="43" rx="13" fill="#635bff"/><text x="1219" y="54" text-anchor="middle" fill="white" font-size="14" font-weight="700" font-family="Arial">Hesap oluştur</text><g filter="url(#s)"><rect x="160" y="105" width="760" height="390" rx="30" fill="white" fill-opacity=".92"/><rect x="945" y="105" width="335" height="390" rx="30" fill="#fbf9ff"/></g><text x="195" y="150" fill="#635bff" font-size="12" font-weight="700" font-family="Arial">TIWOO</text><text x="195" y="215" fill="#0f172a" font-size="52" font-weight="700" font-family="Arial">İnsanları, fikirleri</text><text x="195" y="275" fill="#0f172a" font-size="52" font-weight="700" font-family="Arial">ve gündemi keşfet.</text><text x="195" y="325" fill="#697386" font-size="18" font-family="Arial">Teknoloji, bilim, ekonomi ve günlük yaşam üzerine herkese açık</text><text x="195" y="355" fill="#697386" font-size="18" font-family="Arial">paylaşımları keşfet ve kendi topluluğunu oluştur.</text><rect x="195" y="410" width="132" height="47" rx="13" fill="#635bff"/><text x="261" y="440" text-anchor="middle" fill="white" font-size="15" font-weight="700" font-family="Arial">Tiwoo’ya katıl</text><rect x="340" y="410" width="110" height="47" rx="13" fill="white" stroke="#dce1eb"/><text x="395" y="440" text-anchor="middle" fill="#172033" font-size="15" font-weight="700" font-family="Arial">Giriş yap</text><text x="980" y="150" fill="#635bff" font-size="12" font-weight="700" font-family="Arial">SOCIAL PULSE</text><text x="980" y="205" fill="#0f172a" font-size="29" font-weight="700" font-family="Arial">Paylaş. Keşfet.</text><text x="980" y="240" fill="#0f172a" font-size="29" font-weight="700" font-family="Arial">Bağlan.</text><g font-family="Arial" font-size="14" font-weight="700" fill="#222c40"><rect x="978" y="275" width="270" height="48" rx="14" fill="white" stroke="#dce1eb"/><text x="1017" y="305">✓  Herkese açık timeline</text><rect x="978" y="333" width="270" height="48" rx="14" fill="white" stroke="#dce1eb"/><text x="1017" y="363">✓  Mesajlaşma ve bildirimler</text><rect x="978" y="391" width="270" height="48" rx="14" fill="white" stroke="#dce1eb"/><text x="1017" y="421">✓  Takip sistemi</text></g><text x="160" y="545" fill="#635bff" font-size="11" font-weight="700" font-family="Arial">HERKESE AÇIK AKIŞ</text><text x="160" y="580" fill="#0f172a" font-size="28" font-weight="700" font-family="Arial">Tiwoo’da neler konuşuluyor?</text><g filter="url(#s)"><rect x="160" y="620" width="550" height="190" rx="22" fill="white"/><rect x="730" y="620" width="550" height="190" rx="22" fill="white"/></g><circle cx="205" cy="665" r="21" fill="#e5e7ff"/><text x="205" y="671" text-anchor="middle" fill="#4338ca" font-size="16" font-weight="700" font-family="Arial">T</text><text x="238" y="658" fill="#0f172a" font-size="16" font-weight="700" font-family="Arial">Tiwoo</text><text x="238" y="680" fill="#697386" font-size="12" font-family="Arial">@tiwoo · yeni</text><text x="184" y="725" fill="#1e293b" font-size="16" font-family="Arial">Altın fiyatını TL bazında izlerken yalnızca ons altına bakmak</text><text x="184" y="751" fill="#1e293b" font-size="16" font-family="Arial">yetmez; USD/TL de gram altını etkiler.</text><circle cx="775" cy="665" r="21" fill="#e5e7ff"/><text x="775" y="671" text-anchor="middle" fill="#4338ca" font-size="16" font-weight="700" font-family="Arial">T</text><text x="808" y="658" fill="#0f172a" font-size="16" font-weight="700" font-family="Arial">Tiwoo</text><text x="808" y="680" fill="#697386" font-size="12" font-family="Arial">@tiwoo · bugün</text><text x="754" y="725" fill="#1e293b" font-size="16" font-family="Arial">Sade sosyal akış, mesajlaşma, bildirimler ve güçlü</text><text x="754" y="751" fill="#1e293b" font-size="16" font-family="Arial">gizlilik kontrolleri.</text><text x="720" y="866" text-anchor="middle" fill="#635bff" font-size="14" font-weight="700" font-family="Arial">tiwoo.vercel.app</text></svg>